<?xml version="1.0" encoding="UTF-8"?>
<svg version="1.1" xmlns="http://www.w3.org/2000/svg" width="528" height="504">
<path d="M0 0 C16.59939284 7.63865865 31.03490762 19.03379625 44.2890625 31.4765625 C46.54255176 33.57419083 48.83340164 35.5805911 51.1875 37.5625 C65.03376707 49.64599796 76.27800993 65.49958767 86 81 C86.40428223 81.64098633 86.80856445 82.28197266 87.22509766 82.94238281 C119.57950349 134.72482069 127.3594617 194.27218448 130.7277832 254.13696289 C131.44686554 266.73973892 133.07412755 278.01392926 137 290 C137.62379779 291.98824992 138.24748874 293.97653336 138.87109375 295.96484375 C147.07580476 321.65303396 157.15159969 346.68730313 167.375 371.625 C167.70557404 372.43167114 168.03614807 373.23834229 168.3767395 374.06945801 C172.09463745 383.12574236 175.87680418 392.14491642 179.89926147 401.07095337 C182 405.78565512 182 405.78565512 182 408 C167.97824246 402.99605217 155.47047273 392.21417124 144 383 C143.41041504 382.52900879 142.82083008 382.05801758 142.21337891 381.57275391 C127.18498281 369.45559511 112.49732776 355.54150751 101 340 C100.52578613 339.37512695 100.05157227 338.75025391 99.56298828 338.10644531 C91.08264602 326.91562215 83.69074383 315.34046431 77 303 C76.64099609 302.34386719 76.28199219 301.68773437 75.91210938 301.01171875 C65.53852512 281.85133177 57.84100181 261.22292061 53 240 C52.80712402 239.1867627 52.61424805 238.37352539 52.41552734 237.53564453 C47.50405423 216.15553535 47.29805775 193.82003634 46 172 C42.62832486 115.33769775 26.32993031 65.61490132 4.31713867 13.57202148 C4.02762329 12.88293198 3.73810791 12.19384247 3.43981934 11.48387146 C2.65713489 9.62284881 1.86821465 7.7644522 1.07885742 5.90625 C0 3 0 3 0 0 Z " fill="#F1752D" transform="translate(242,12)"/>
<path d="M0 0 C0.33 0 0.66 0 1 0 C2.27543726 65.60980098 -15.44862864 126.49239564 -57 178 C-57.46809082 178.58523438 -57.93618164 179.17046875 -58.41845703 179.7734375 C-70.57853291 194.85731869 -84.52446238 209.31632459 -100 221 C-100.99644531 221.79019531 -101.99289063 222.58039063 -103.01953125 223.39453125 C-113.15875517 231.41418635 -123.72702895 238.71186657 -135.0625 244.9375 C-157.77902522 257.69153558 -179.09996069 278.9637269 -194.94921875 299.38671875 C-196.98091089 301.97567502 -199.10501686 304.44755537 -201.27124023 306.92333984 C-208.29579944 314.96380631 -214.7075678 323.37976614 -221 332 C-221.78310547 333.06758545 -221.78310547 333.06758545 -222.58203125 334.15673828 C-229.54586498 343.65999921 -236.31960716 353.27307341 -242.86303711 363.0715332 C-243.37616455 363.83296631 -243.88929199 364.59439941 -244.41796875 365.37890625 C-245.09508911 366.39319702 -245.09508911 366.39319702 -245.78588867 367.42797852 C-247 369 -247 369 -249 370 C-249.63306279 330.27612132 -249.63306279 330.27612132 -246 314 C-245.82839355 313.19820313 -245.65678711 312.39640625 -245.47998047 311.5703125 C-235.34566852 265.05572254 -210.96815268 223.97321469 -178.953125 189.13671875 C-177.21103887 187.23087653 -175.54045187 185.28496698 -173.875 183.3125 C-165.66780511 173.8944075 -156.55890833 165.03373928 -147 157 C-146.04738281 156.15824219 -145.09476562 155.31648437 -144.11328125 154.44921875 C-131.3445423 143.20333941 -117.7728122 133.00697292 -103.5 123.75 C-95.90032628 118.80149006 -89.43795365 113.39082368 -83 107 C-82.12988281 106.16726562 -81.25976562 105.33453125 -80.36328125 104.4765625 C-75.30471495 99.56518266 -70.74271503 94.4166072 -66.34375 88.91015625 C-64.25780342 86.32010592 -62.12643185 83.78440709 -59.96289062 81.25976562 C-54.05250986 74.36019979 -48.46811474 67.25428437 -43 60 C-42.31019043 59.08976074 -42.31019043 59.08976074 -41.60644531 58.16113281 C-27.21431636 39.16975886 -13.21903012 19.82854519 0 0 Z " fill="#39A8B5" transform="translate(249,105)"/>
<path d="M0 0 C0.90054108 -0.00701431 1.80108215 -0.01402863 2.72891235 -0.02125549 C5.61750351 -0.03865402 8.50588962 -0.0451074 11.39453125 -0.046875 C12.38190277 -0.04754974 13.36927429 -0.04822449 14.38656616 -0.04891968 C28.87088644 -0.03317921 42.95714651 0.39155005 57.20703125 3.203125 C58.12532715 3.37473145 59.04362305 3.54633789 59.98974609 3.72314453 C99.63989195 11.23177767 138.53382017 26.64301466 171.08203125 50.765625 C215.42202068 82.06889959 279.33561125 92.80036867 332.20703125 100.203125 C332.20703125 100.863125 332.20703125 101.523125 332.20703125 102.203125 C298.7586626 118.96280638 265.21857158 127.88500242 227.70703125 127.640625 C226.70845093 127.63758362 225.70987061 127.63454224 224.68103027 127.63140869 C207.86766201 127.55607098 191.73802898 126.44887936 175.20703125 123.203125 C174.16981934 123.01008789 173.13260742 122.81705078 172.06396484 122.61816406 C144.70373511 117.41360998 117.41459295 107.99221279 92.20703125 96.203125 C91.23830078 95.76033203 90.26957031 95.31753906 89.27148438 94.86132812 C77.72116639 89.57558939 66.4839167 83.98212516 55.58203125 77.453125 C54.66236572 76.90261475 53.7427002 76.35210449 52.79516602 75.78491211 C46.40398801 71.94277978 46.40398801 71.94277978 43.28613281 70.01611328 C0.88889599 44.02413853 -59.94614921 38.3566947 -107.79296875 30.203125 C-107.79296875 29.543125 -107.79296875 28.883125 -107.79296875 28.203125 C-74.88442894 11.59042333 -37.09541811 0.19462421 0 0 Z " fill="#A2287C" transform="translate(191.79296875,367.796875)"/>
<path d="M0 0 C0.66 0.33 1.32 0.66 2 1 C-10.21 13.21 -22.42 25.42 -35 38 C-35.66 37.67 -36.32 37.34 -37 37 C-13.86608198 12.07629737 -13.86608198 12.07629737 -3.5234375 3.3046875 C-2.30041699 2.25728019 -1.13860468 1.13860468 0 0 Z " fill="#58C7EE" transform="translate(104,260)"/>
<path d="M0 0 C0.33 0 0.66 0 1 0 C1 10.23 1 20.46 1 31 C0.67 31 0.34 31 0 31 C-0.33 22.75 -0.66 14.5 -1 6 C-2.32 6.99 -3.64 7.98 -5 9 C-3.75471468 5.55151758 -2.38532951 2.80016942 0 0 Z " fill="#E1E979" transform="translate(249,105)"/>
</svg>
