<svg version="1.1" id="Layer_1" xmlns="http://www.w3.org/2000/svg" xmlns:xlink="http://www.w3.org/1999/xlink" x="0px" y="0px"
	 width="100%" viewBox="0 0 528 504" enable-background="new 0 0 528 504" xml:space="preserve">
<path fill="#FFFFFF" opacity="1.000000" stroke="none" 
	d="
M1.000001,440.000000 
	C1.000000,293.697693 1.000000,147.395370 1.000000,1.046524 
	C176.931671,1.046524 352.863342,1.046524 528.897522,1.046524 
	C528.897522,168.896011 528.897522,336.792114 528.897522,504.844116 
	C353.000092,504.844116 177.000076,504.844116 1.000000,504.844116 
	C1.000000,495.259216 1.000000,485.594604 1.336444,475.405304 
	C6.193244,468.282898 10.713599,461.685211 15.520687,454.921631 
	C18.961611,450.205811 22.115801,445.655884 25.553665,440.941528 
	C29.702440,435.564819 33.567539,430.352478 37.700493,424.960022 
	C41.331440,420.234314 44.694527,415.688660 48.389008,411.054871 
	C53.099525,405.956757 57.478653,400.946747 62.164169,395.797180 
	C66.542282,391.211182 70.614006,386.764771 74.971916,382.182373 
	C79.693710,377.751068 84.129311,373.455719 88.858505,369.038208 
	C93.448898,365.283844 97.745712,361.651703 102.370117,357.927551 
	C108.802322,353.902435 114.906937,349.969299 121.352882,345.965424 
	C129.577957,340.303711 137.461716,334.712769 145.664886,329.039581 
	C152.709244,323.075348 159.434189,317.193298 166.459045,311.164673 
	C168.159531,309.625580 169.560120,308.233093 171.262634,306.715942 
	C173.764282,304.163666 175.963989,301.735992 178.467377,299.152283 
	C180.726532,296.722778 182.681992,294.449341 184.915924,292.036072 
	C186.999374,289.674225 188.804337,287.452209 190.871765,285.056671 
	C193.314529,281.989624 195.494797,279.096100 197.940369,276.036072 
	C200.181595,272.994812 202.157501,270.120056 204.418671,267.054626 
	C206.791580,263.556488 208.879242,260.249023 211.239105,256.743225 
	C213.102020,253.724854 214.692764,250.904877 216.541321,247.886200 
	C218.128174,245.123932 219.457230,242.560394 220.993164,239.707245 
	C222.513489,236.623840 223.826965,233.830032 225.402664,230.821350 
	C226.574234,228.465179 227.483582,226.323883 228.617462,223.923080 
	C229.891281,220.775543 230.940552,217.887527 232.167236,214.693787 
	C233.539642,211.258148 234.734634,208.128235 236.057007,204.649094 
	C237.301193,200.908066 238.417999,197.516251 239.711380,193.825470 
	C240.757004,190.058975 241.626083,186.591461 242.670654,182.815002 
	C243.554642,179.003677 244.263123,175.501282 245.143524,171.647491 
	C245.985397,167.236969 246.655365,163.177841 247.532288,158.787872 
	C248.310410,153.005341 248.881592,147.553635 249.613953,141.737152 
	C250.277100,130.228622 250.779053,119.084900 251.280991,107.941170 
	C250.812714,107.806099 250.344437,107.671021 249.876160,107.535950 
	C243.901535,116.348656 237.926895,125.161362 231.666138,134.145752 
	C228.542282,138.435181 225.704514,142.552933 222.578537,146.862900 
	C219.451233,151.008743 216.612167,154.962357 213.495544,159.089294 
	C211.430252,161.760681 209.642487,164.258759 207.564880,166.934402 
	C205.138168,169.994568 203.001312,172.877167 200.575226,175.939209 
	C197.770172,179.379349 195.254333,182.640045 192.460632,186.068176 
	C190.438049,188.447922 188.693359,190.660217 186.659515,193.045883 
	C183.916962,196.146790 181.463547,199.074341 178.714691,202.148010 
	C176.847107,204.144638 175.274979,205.995163 173.431091,208.022705 
	C171.049438,210.435852 168.939529,212.671997 166.537598,215.048859 
	C164.459885,217.014725 162.674210,218.839874 160.568756,220.795319 
	C157.462799,223.200897 154.676636,225.476166 151.553345,227.852951 
	C147.367111,230.576920 143.518005,233.199371 139.335022,235.878418 
	C135.612045,238.496948 132.222961,241.058868 128.513718,243.756897 
	C124.780983,246.589783 121.368385,249.286545 117.637207,252.078278 
	C115.165161,254.094391 113.011703,256.015564 110.557297,258.058289 
	C108.391212,259.869629 106.526100,261.559448 104.352806,263.408112 
	C101.960342,265.515442 99.876053,267.463928 97.487274,269.581573 
	C95.066185,271.811035 92.949570,273.871338 90.532425,276.067444 
	C84.044319,282.753479 77.856750,289.303741 71.375824,295.995911 
	C65.946327,302.388245 60.810165,308.638702 55.398163,315.059570 
	C51.700623,320.046875 48.278923,324.863861 44.567768,329.869904 
	C41.188068,335.040039 38.097828,340.021057 34.731926,345.201874 
	C31.654398,350.605072 28.852535,355.808533 25.800663,361.251221 
	C23.224033,366.618652 20.897409,371.746826 18.356110,377.136597 
	C16.134962,382.933350 14.128492,388.468475 11.931116,394.322571 
	C10.163222,400.428497 8.586237,406.215515 6.769700,412.305298 
	C5.386250,419.072968 4.242352,425.537811 2.977722,432.374634 
	C2.237995,435.164398 1.618999,437.582184 1.000001,440.000000 
M487.365387,463.577118 
	C481.577545,462.422546 475.789673,461.267975 469.307068,459.789734 
	C464.204773,458.599365 459.102509,457.408997 453.271362,455.943787 
	C447.514435,454.398804 441.757507,452.853821 435.286377,451.010559 
	C429.538177,449.300079 423.789948,447.589630 417.528198,445.378540 
	C412.113739,443.541290 406.699280,441.704041 400.803894,439.320343 
	C394.216339,436.539551 387.628815,433.758789 380.606995,430.442657 
	C375.115845,427.607025 369.624695,424.771393 363.966064,421.266937 
	C358.980835,417.831970 353.995575,414.396973 348.636444,410.400085 
	C344.423279,408.030304 340.210083,405.660553 335.417206,402.846893 
	C331.345215,400.864136 327.273254,398.881409 322.739532,396.361206 
	C316.863586,393.888275 310.987671,391.415375 304.609253,388.425659 
	C230.462402,359.527313 157.691422,362.803040 85.043449,397.800018 
	C87.227005,398.394135 88.270409,398.734802 89.338135,398.960297 
	C122.682808,406.002167 156.133392,412.583282 189.338348,420.230957 
	C209.796417,424.942841 228.920609,433.080933 247.199493,443.991791 
	C264.966736,454.597290 284.335419,462.519897 303.665863,471.981201 
	C309.436157,474.015808 315.206451,476.050385 321.475861,478.600952 
	C326.317810,480.044006 331.159760,481.487061 336.644257,483.317200 
	C340.706207,484.397919 344.768158,485.478638 349.482483,486.880920 
	C353.989014,487.866425 358.495514,488.851929 363.761719,490.083221 
	C369.175323,491.008240 374.588928,491.933258 380.802124,493.070404 
	C386.868500,493.696075 392.934845,494.321747 399.802643,495.174957 
	C405.868988,495.395508 411.935364,495.616058 418.928772,495.976379 
	C424.614258,495.764252 430.299713,495.552124 436.797546,495.499603 
	C442.199036,494.914795 447.600525,494.330017 453.809570,493.778564 
	C459.261383,492.709747 464.713196,491.640930 471.000519,490.488068 
	C476.666748,488.899811 482.333008,487.311554 488.723572,485.647369 
	C500.302765,480.918701 511.881958,476.190033 523.461121,471.461395 
	C523.333862,470.906403 523.206604,470.351410 523.079346,469.796448 
	C511.388885,467.856812 499.698395,465.917175 487.365387,463.577118 
M253.968552,39.945316 
	C256.598724,46.381451 259.228882,52.817581 261.917725,59.995651 
	C264.650116,67.331047 267.382507,74.666443 270.130127,82.752274 
	C272.568390,89.908249 275.006683,97.064224 277.616150,105.002258 
	C279.302063,110.692665 280.987976,116.383064 282.743744,122.903114 
	C284.142151,129.273422 285.540558,135.643723 286.867706,142.922821 
	C287.596069,151.616058 288.324432,160.309280 288.963531,169.922195 
	C289.631134,178.617432 290.298706,187.312653 290.877014,196.937119 
	C291.473450,206.326736 292.069885,215.716370 292.615295,226.003876 
	C294.100616,234.670364 295.585968,243.336853 297.016113,252.791946 
	C299.637482,261.541412 302.258820,270.290863 304.911835,279.814026 
	C308.860626,289.008789 312.809418,298.203583 316.889923,308.089081 
	C322.201813,317.182953 327.513702,326.276855 332.985870,336.017242 
	C340.310577,345.350464 347.635284,354.683716 355.184479,364.652344 
	C374.913879,386.819427 397.848358,405.015381 424.448334,420.810852 
	C416.059753,400.728943 408.162018,381.822021 400.172974,362.153198 
	C396.417816,352.437134 392.662689,342.721069 388.909149,332.254211 
	C385.848083,323.505615 382.787018,314.757050 379.682953,305.265167 
	C377.528656,296.508423 375.374359,287.751678 373.490021,278.196655 
	C372.899109,269.467102 372.308197,260.737579 371.827026,251.155930 
	C370.867218,242.438263 369.907410,233.720596 369.058105,224.126419 
	C367.717163,214.750351 366.376251,205.374283 365.099884,195.134979 
	C363.411194,186.419296 361.722504,177.703598 360.070862,168.182800 
	C357.302063,159.459091 354.533295,150.735367 351.688080,141.302307 
	C348.694305,134.540985 345.700531,127.779678 342.578217,120.345177 
	C339.406036,114.557777 336.233856,108.770378 332.944214,102.288857 
	C328.240814,95.196259 323.537415,88.103661 318.654022,80.372337 
	C316.753967,77.850052 315.028503,75.169960 312.919342,72.836716 
	C307.729858,67.095787 302.363922,61.514351 296.981812,55.191319 
	C290.401184,49.094795 283.820587,42.998272 276.898224,36.308277 
	C266.871765,28.072836 256.312164,20.670830 244.932495,14.550936 
	C244.566498,14.928000 244.200485,15.305066 243.834473,15.682132 
	C247.178375,23.527018 250.522278,31.371906 253.968552,39.945316 
z"/>
<path fill="#264CA5" opacity="1.000000" stroke="none" 
	d="
M1.000001,440.449982 
	C1.618999,437.582184 2.237995,435.164398 3.364776,432.374207 
	C11.005039,435.036530 18.137518,438.071228 25.269993,441.105927 
	C22.115801,445.655884 18.961611,450.205811 15.142557,454.869141 
	C9.985130,452.988373 5.492566,450.994171 1.000001,449.000000 
	C1.000000,446.299988 1.000000,443.599976 1.000001,440.449982 
z"/>
<path fill="#2D449E" opacity="1.000000" stroke="none" 
	d="
M1.000001,449.468658 
	C5.492566,450.994171 9.985130,452.988373 14.855824,455.035034 
	C10.713599,461.685211 6.193244,468.282898 1.336444,474.940308 
	C1.000000,466.645782 1.000000,458.291534 1.000001,449.468658 
z"/>
<path fill="#91288E" opacity="1.000000" stroke="none" 
	d="
M303.000885,471.620605 
	C284.335419,462.519897 264.966736,454.597290 247.199493,443.991791 
	C228.920609,433.080933 209.796417,424.942841 189.338348,420.230957 
	C156.133392,412.583282 122.682808,406.002167 89.338135,398.960297 
	C88.270409,398.734802 87.227005,398.394135 85.043449,397.800018 
	C157.691422,362.803040 230.462402,359.527313 304.544678,388.969452 
	C304.320038,391.479950 304.045227,393.445038 304.017365,395.413605 
	C303.658051,420.815643 303.333923,446.218170 303.000885,471.620605 
z"/>
<path fill="#F1742A" opacity="1.000000" stroke="none" 
	d="
M292.666321,225.105988 
	C292.069885,215.716370 291.473450,206.326736 291.392639,196.470032 
	C316.283936,196.001358 340.659637,195.999786 365.035309,195.998215 
	C366.376251,205.374283 367.717163,214.750351 368.537842,224.563660 
	C342.900482,225.035919 317.783417,225.070953 292.666321,225.105988 
z"/>
<path fill="#02ABEC" opacity="1.000000" stroke="none" 
	d="
M166.159149,311.311279 
	C159.434189,317.193298 152.709244,323.075348 145.262451,329.003204 
	C143.584579,328.802368 142.563644,328.696075 141.681976,328.288513 
	C118.335617,317.495972 95.003624,306.672333 71.669174,295.854034 
	C77.856750,289.303741 84.044319,282.753479 90.904190,276.117645 
	C97.905190,278.953278 104.223183,281.897949 110.565002,284.790344 
	C121.283562,289.678894 132.079590,294.402740 142.723877,299.447296 
	C150.633347,303.195770 158.354248,307.342133 166.159149,311.311279 
z"/>
<path fill="#F16529" opacity="1.000000" stroke="none" 
	d="
M292.640808,225.554932 
	C317.783417,225.070953 342.900482,225.035919 368.482605,225.001907 
	C369.907410,233.720596 370.867218,242.438263 371.322418,251.581100 
	C346.235626,252.005295 321.653473,252.004318 297.071289,252.003342 
	C295.585968,243.336853 294.100616,234.670364 292.640808,225.554932 
z"/>
<path fill="#F3842B" opacity="1.000000" stroke="none" 
	d="
M365.067596,195.566589 
	C340.659637,195.999786 316.283936,196.001358 291.437286,196.005417 
	C290.298706,187.312653 289.631134,178.617432 289.473022,169.461456 
	C313.332977,168.996429 336.683380,168.992172 360.033813,168.987900 
	C361.722504,177.703598 363.411194,186.419296 365.067596,195.566589 
z"/>
<path fill="#F05728" opacity="1.000000" stroke="none" 
	d="
M297.043701,252.397644 
	C321.653473,252.004318 346.235626,252.005295 371.267548,252.007141 
	C372.308197,260.737579 372.899109,269.467102 372.940918,278.598755 
	C349.887909,279.014008 327.384064,279.027161 304.880188,279.040314 
	C302.258820,270.290863 299.637482,261.541412 297.043701,252.397644 
z"/>
<path fill="#F3932C" opacity="1.000000" stroke="none" 
	d="
M360.052338,168.585358 
	C336.683380,168.992172 313.332977,168.996429 289.517670,169.001617 
	C288.324432,160.309280 287.596069,151.616058 287.376343,142.464157 
	C309.178162,142.007538 330.471344,142.009598 351.764496,142.011658 
	C354.533295,150.735367 357.302063,159.459091 360.052338,168.585358 
z"/>
<path fill="#05A1E5" opacity="1.000000" stroke="none" 
	d="
M71.375832,295.995911 
	C95.003624,306.672333 118.335617,317.495972 141.681976,328.288513 
	C142.563644,328.696075 143.584579,328.802368 144.943039,329.085419 
	C137.461716,334.712769 129.577957,340.303711 121.296036,345.611572 
	C120.330917,344.764618 119.863914,343.986176 119.182220,343.668732 
	C106.382011,337.707397 93.582245,331.743744 80.726723,325.903046 
	C72.422081,322.129944 64.028008,318.553680 55.674011,314.889191 
	C60.810165,308.638702 65.946327,302.388245 71.375832,295.995911 
z"/>
<path fill="#EF4928" opacity="1.000000" stroke="none" 
	d="
M304.895996,279.427185 
	C327.384064,279.027161 349.887909,279.014008 372.805908,278.997894 
	C375.374359,287.751678 377.528656,296.508423 379.253967,305.636047 
	C359.955017,306.004608 341.084808,305.964111 322.215302,306.061035 
	C320.394012,306.070374 318.577118,306.932251 316.758179,307.398346 
	C312.809418,298.203583 308.860626,289.008789 304.895996,279.427185 
z"/>
<path fill="#EE3C27" opacity="1.000000" stroke="none" 
	d="
M316.824036,307.743713 
	C318.577118,306.932251 320.394012,306.070374 322.215302,306.061035 
	C341.084808,305.964111 359.955017,306.004608 379.275482,306.007690 
	C382.787018,314.757050 385.848083,323.505615 388.445862,332.628540 
	C371.318970,333.001923 354.654663,332.931549 337.992859,333.103790 
	C336.262817,333.121643 334.547638,334.580475 332.825592,335.370728 
	C327.513702,326.276855 322.201813,317.182953 316.824036,307.743713 
z"/>
<path fill="#ED3026" opacity="1.000000" stroke="none" 
	d="
M332.905731,335.693970 
	C334.547638,334.580475 336.262817,333.121643 337.992859,333.103790 
	C354.654663,332.931549 371.318970,333.001923 388.445068,333.003967 
	C392.662689,342.721069 396.417816,352.437134 399.732239,362.558777 
	C386.594971,362.976227 373.898102,362.942688 361.202332,363.045288 
	C359.119080,363.062103 357.040649,363.677979 354.959991,364.016937 
	C347.635284,354.683716 340.310577,345.350464 332.905731,335.693970 
z"/>
<path fill="#ED2427" opacity="1.000000" stroke="none" 
	d="
M355.072235,364.334656 
	C357.040649,363.677979 359.119080,363.062103 361.202332,363.045288 
	C373.898102,362.942688 386.594971,362.976227 399.777893,362.939697 
	C408.162018,381.822021 416.059753,400.728943 424.448334,420.810852 
	C397.848358,405.015381 374.913879,386.819427 355.072235,364.334656 
z"/>
<path fill="#982786" opacity="1.000000" stroke="none" 
	d="
M303.333374,471.800903 
	C303.333923,446.218170 303.658051,420.815643 304.017365,395.413605 
	C304.045227,393.445038 304.320038,391.479950 304.795898,389.227844 
	C310.987671,391.415375 316.863586,393.888275 322.652313,396.869202 
	C322.043396,400.094330 321.082825,402.809113 321.068665,405.528870 
	C320.942902,429.713745 320.984497,453.899506 320.976715,478.084961 
	C315.206451,476.050385 309.436157,474.015808 303.333374,471.800903 
z"/>
<path fill="#0996DD" opacity="1.000000" stroke="none" 
	d="
M55.398163,315.059570 
	C64.028008,318.553680 72.422081,322.129944 80.726723,325.903046 
	C93.582245,331.743744 106.382011,337.707397 119.182220,343.668732 
	C119.863914,343.986176 120.330917,344.764618 120.954712,345.682312 
	C114.906937,349.969299 108.802322,353.902435 102.056145,357.775818 
	C99.566444,356.629333 97.795181,355.375916 95.857994,354.482147 
	C80.252266,347.282013 64.599922,340.182648 49.011703,332.945099 
	C47.456860,332.223175 46.234112,330.786011 44.857231,329.680817 
	C48.278923,324.863861 51.700623,320.046875 55.398163,315.059570 
z"/>
<path fill="#F4A12D" opacity="1.000000" stroke="none" 
	d="
M351.726288,141.656982 
	C330.471344,142.009598 309.178162,142.007538 287.411987,142.009766 
	C285.540558,135.643723 284.142151,129.273422 283.203552,122.466927 
	C300.906799,122.020493 318.150452,122.048546 335.393463,121.956528 
	C337.832825,121.943504 340.269043,121.345573 342.706726,121.018372 
	C345.700531,127.779678 348.694305,134.540985 351.726288,141.656982 
z"/>
<path fill="#9D267F" opacity="1.000000" stroke="none" 
	d="
M321.226288,478.342957 
	C320.984497,453.899506 320.942902,429.713745 321.068665,405.528870 
	C321.082825,402.809113 322.043396,400.094330 322.883179,397.137939 
	C327.273254,398.881409 331.345215,400.864136 335.708344,403.517517 
	C336.000214,430.435486 336.000946,456.682800 336.001709,482.930115 
	C331.159760,481.487061 326.317810,480.044006 321.226288,478.342957 
z"/>
<path fill="#B42365" opacity="1.000000" stroke="none" 
	d="
M399.001221,494.947388 
	C392.934845,494.321747 386.868500,493.696075 380.401489,492.505127 
	C380.000549,473.335266 379.973053,454.730560 380.045349,436.126221 
	C380.052032,434.408875 380.694183,432.694031 381.041260,430.978027 
	C387.628815,433.758789 394.216339,436.539551 400.671021,439.784760 
	C400.025452,442.063171 399.080322,443.874176 399.067596,445.691681 
	C398.952576,462.109589 399.000824,478.528687 399.001221,494.947388 
z"/>
<path fill="#F6B82F" opacity="1.000000" stroke="none" 
	d="
M318.834015,81.011070 
	C323.537415,88.103661 328.240814,95.196259 332.529907,102.641098 
	C316.146881,102.995567 300.177917,102.950043 284.209900,103.054230 
	C281.952484,103.068962 279.699799,103.813469 277.444946,104.220200 
	C275.006683,97.064224 272.568390,89.908249 270.582947,82.376564 
	C284.187042,82.000465 297.338715,82.055817 310.489227,81.954826 
	C313.273071,81.933449 316.052521,81.340614 318.834015,81.011070 
z"/>
<path fill="#AD246D" opacity="1.000000" stroke="none" 
	d="
M380.824127,430.710327 
	C380.694183,432.694031 380.052032,434.408875 380.045349,436.126221 
	C379.973053,454.730560 380.000549,473.335266 380.001678,492.399109 
	C374.588928,491.933258 369.175323,491.008240 363.381226,489.502502 
	C363.000488,468.462524 362.970856,448.003113 363.049316,427.544128 
	C363.056488,425.673309 363.755676,423.805145 364.133545,421.935730 
	C369.624695,424.771393 375.115845,427.607025 380.824127,430.710327 
z"/>
<path fill="#F7C630" opacity="1.000000" stroke="none" 
	d="
M318.744019,80.691704 
	C316.052521,81.340614 313.273071,81.933449 310.489227,81.954826 
	C297.338715,82.055817 284.187042,82.000465 270.575317,82.001343 
	C267.382507,74.666443 264.650116,67.331047 262.086914,59.254028 
	C263.903290,58.008339 265.543121,57.098682 267.198883,57.068672 
	C275.460907,56.918900 283.727936,57.062294 291.991119,56.948845 
	C293.688354,56.925545 295.376587,56.245888 297.068970,55.868774 
	C302.363922,61.514351 307.729858,67.095787 312.919342,72.836716 
	C315.028503,75.169960 316.753967,77.850052 318.744019,80.691704 
z"/>
<path fill="#F5AC2E" opacity="1.000000" stroke="none" 
	d="
M277.530548,104.611229 
	C279.699799,103.813469 281.952484,103.068962 284.209900,103.054230 
	C300.177917,102.950043 316.146881,102.995567 332.588623,102.988159 
	C336.233856,108.770378 339.406036,114.557777 342.642456,120.681770 
	C340.269043,121.345573 337.832825,121.943504 335.393463,121.956528 
	C318.150452,122.048546 300.906799,122.020493 283.168610,122.052101 
	C280.987976,116.383064 279.302063,110.692665 277.530548,104.611229 
z"/>
<path fill="#A72574" opacity="1.000000" stroke="none" 
	d="
M364.049805,421.601318 
	C363.755676,423.805145 363.056488,425.673309 363.049316,427.544128 
	C362.970856,448.003113 363.000488,468.462524 363.001404,489.379608 
	C358.495514,488.851929 353.989014,487.866425 349.203125,486.212006 
	C348.952606,460.682739 348.981476,435.822357 349.010345,410.962006 
	C353.995575,414.396973 358.980835,417.831970 364.049805,421.601318 
z"/>
<path fill="#0D8ED6" opacity="1.000000" stroke="none" 
	d="
M44.567772,329.869904 
	C46.234112,330.786011 47.456860,332.223175 49.011703,332.945099 
	C64.599922,340.182648 80.252266,347.282013 95.857994,354.482147 
	C97.795181,355.375916 99.566444,356.629333 101.728546,357.867828 
	C97.745712,361.651703 93.448898,365.283844 88.455200,368.979370 
	C78.487755,364.687256 69.253250,360.252899 59.935860,356.000092 
	C51.674286,352.229279 43.320618,348.660217 35.007591,345.002106 
	C38.097828,340.021057 41.188068,335.040039 44.567772,329.869904 
z"/>
<path fill="#A2267A" opacity="1.000000" stroke="none" 
	d="
M348.823395,410.681030 
	C348.981476,435.822357 348.952606,460.682739 348.876923,486.051208 
	C344.768158,485.478638 340.706207,484.397919 336.322998,483.123657 
	C336.000946,456.682800 336.000214,430.435486 335.998199,403.739471 
	C340.210083,405.660553 344.423279,408.030304 348.823395,410.681030 
z"/>
<path fill="#BC235C" opacity="1.000000" stroke="none" 
	d="
M399.401917,495.061188 
	C399.000824,478.528687 398.952576,462.109589 399.067596,445.691681 
	C399.080322,443.874176 400.025452,442.063171 400.911499,440.057983 
	C406.699280,441.704041 412.113739,443.541290 417.772339,446.105530 
	C418.011536,463.167206 418.006622,479.501892 418.001709,495.836609 
	C411.935364,495.616058 405.868988,495.395508 399.401917,495.061188 
z"/>
<path fill="#1085D0" opacity="1.000000" stroke="none" 
	d="
M34.731930,345.201874 
	C43.320618,348.660217 51.674286,352.229279 59.935860,356.000092 
	C69.253250,360.252899 78.487755,364.687256 88.161613,369.101532 
	C84.129311,373.455719 79.693710,377.751068 74.597000,382.014587 
	C60.492832,375.663757 47.077164,369.285126 33.580589,363.082611 
	C31.246386,362.009918 28.569345,361.683258 26.050669,361.011963 
	C28.852535,355.808533 31.654398,350.605072 34.731930,345.201874 
z"/>
<path fill="#43BCB0" opacity="1.000000" stroke="none" 
	d="
M128.833862,243.620789 
	C132.222961,241.058868 135.612045,238.496948 139.681671,236.033218 
	C158.578583,244.596237 176.822632,253.002502 194.985580,261.580505 
	C198.207916,263.102325 201.092743,265.338837 204.133423,267.245300 
	C202.157501,270.120056 200.181595,272.994812 197.529449,275.966614 
	C181.809784,269.155823 166.715546,262.355774 151.743851,255.295853 
	C143.995071,251.641922 136.463547,247.527283 128.833862,243.620789 
z"/>
<path fill="#147AC8" opacity="1.000000" stroke="none" 
	d="
M25.800663,361.251221 
	C28.569345,361.683258 31.246386,362.009918 33.580589,363.082611 
	C47.077164,369.285126 60.492832,375.663757 74.310814,382.150574 
	C70.614006,386.764771 66.542282,391.211182 61.854973,395.657654 
	C53.760120,392.075775 46.358658,388.317932 38.778122,384.964905 
	C32.146927,382.031830 25.314390,379.553955 18.570789,376.875000 
	C20.897409,371.746826 23.224033,366.618652 25.800663,361.251221 
z"/>
<path fill="#35B9BD" opacity="1.000000" stroke="none" 
	d="
M128.513718,243.756897 
	C136.463547,247.527283 143.995071,251.641922 151.743851,255.295853 
	C166.715546,262.355774 181.809784,269.155823 197.264145,276.133087 
	C195.494797,279.096100 193.314529,281.989624 190.489868,284.913239 
	C171.633499,276.503967 153.432007,268.041840 135.203384,259.638550 
	C129.491699,257.005463 123.707047,254.530609 117.955795,251.983322 
	C121.368385,249.286545 124.780983,246.589783 128.513718,243.756897 
z"/>
<path fill="#C32254" opacity="1.000000" stroke="none" 
	d="
M418.465240,495.906494 
	C418.006622,479.501892 418.011536,463.167206 418.029114,446.355835 
	C423.789948,447.589630 429.538177,449.300079 435.644165,451.607819 
	C435.996399,466.583374 435.990784,480.961700 435.985199,495.339996 
	C430.299713,495.552124 424.614258,495.764252 418.465240,495.906494 
z"/>
<path fill="#1870C0" opacity="1.000000" stroke="none" 
	d="
M18.356113,377.136597 
	C25.314390,379.553955 32.146927,382.031830 38.778122,384.964905 
	C46.358658,388.317932 53.760120,392.075775 61.548584,395.797241 
	C57.478653,400.946747 53.099525,405.956757 48.328201,410.696350 
	C44.364597,408.489471 40.900219,406.312561 37.200043,404.665344 
	C28.902933,400.971619 20.488611,397.541260 12.122025,394.003632 
	C14.128492,388.468475 16.134962,382.933350 18.356113,377.136597 
z"/>
<path fill="#51C0A2" opacity="1.000000" stroke="none" 
	d="
M204.418671,267.054626 
	C201.092743,265.338837 198.207916,263.102325 194.985580,261.580505 
	C176.822632,253.002502 158.578583,244.596237 140.015549,235.976624 
	C143.518005,233.199371 147.367111,230.576920 151.707581,228.185028 
	C152.816437,228.949142 153.352081,229.658340 154.063675,229.989975 
	C164.861496,235.022293 175.713699,239.938705 186.487625,245.021164 
	C194.695328,248.893005 202.810562,252.960907 210.966919,256.941589 
	C208.879242,260.249023 206.791580,263.556488 204.418671,267.054626 
z"/>
<path fill="#28B6C8" opacity="1.000000" stroke="none" 
	d="
M117.637207,252.078278 
	C123.707047,254.530609 129.491699,257.005463 135.203384,259.638550 
	C153.432007,268.041840 171.633499,276.503967 190.227386,285.086792 
	C188.804337,287.452209 186.999374,289.674225 184.505646,291.975464 
	C159.497330,280.682037 135.177795,269.309387 110.858253,257.936737 
	C113.011703,256.015564 115.165161,254.094391 117.637207,252.078278 
z"/>
<path fill="#14B2DC" opacity="1.000000" stroke="none" 
	d="
M97.791763,269.412415 
	C99.876053,267.463928 101.960342,265.515442 104.508614,263.790009 
	C107.815628,265.597046 110.575043,267.359680 113.515266,268.736084 
	C132.600250,277.670258 151.731628,286.505249 170.827377,295.416504 
	C173.332611,296.585632 175.721130,298.004913 178.163696,299.308319 
	C175.963989,301.735992 173.764282,304.163666 171.224518,306.374451 
	C169.661575,305.136078 168.573807,303.848846 167.189438,303.145020 
	C163.648727,301.344910 159.971970,299.813263 156.356720,298.158752 
	C140.537277,290.919098 124.671707,283.777069 108.936729,276.358185 
	C105.004303,274.504089 101.495346,271.751862 97.791763,269.412415 
z"/>
<path fill="#CB224C" opacity="1.000000" stroke="none" 
	d="
M436.391357,495.419800 
	C435.990784,480.961700 435.996399,466.583374 436.001282,451.756958 
	C441.757507,452.853821 447.514435,454.398804 453.570679,456.480774 
	C453.580017,458.963898 453.055023,460.908173 453.039307,462.856537 
	C452.956207,473.152191 453.001343,483.448914 453.002014,493.745239 
	C447.600525,494.330017 442.199036,494.914795 436.391357,495.419800 
z"/>
<path fill="#1D64B7" opacity="1.000000" stroke="none" 
	d="
M11.931116,394.322571 
	C20.488611,397.541260 28.902933,400.971619 37.200043,404.665344 
	C40.900219,406.312561 44.364597,408.489471 47.996811,410.784485 
	C44.694527,415.688660 41.331440,420.234314 37.309669,424.902466 
	C32.938995,423.274017 29.267620,421.429718 25.505766,419.793396 
	C19.371317,417.125031 13.177827,414.592407 7.009248,412.002502 
	C8.586237,406.215515 10.163222,400.428497 11.931116,394.322571 
z"/>
<path fill="#1FB4D2" opacity="1.000000" stroke="none" 
	d="
M178.467377,299.152283 
	C175.721130,298.004913 173.332611,296.585632 170.827377,295.416504 
	C151.731628,286.505249 132.600250,277.670258 113.515266,268.736084 
	C110.575043,267.359680 107.815628,265.597046 104.816788,263.631165 
	C106.526100,261.559448 108.391212,259.869629 110.557297,258.058289 
	C135.177795,269.309387 159.497330,280.682037 184.227142,292.115295 
	C182.681992,294.449341 180.726532,296.722778 178.467377,299.152283 
z"/>
<path fill="#F8D531" opacity="1.000000" stroke="none" 
	d="
M297.025391,55.530045 
	C295.376587,56.245888 293.688354,56.925545 291.991119,56.948845 
	C283.727936,57.062294 275.460907,56.918900 267.198883,57.068672 
	C265.543121,57.098682 263.903290,58.008339 262.057587,58.883060 
	C259.228882,52.817581 256.598724,46.381451 254.199875,39.249573 
	C256.358368,38.369015 258.282532,38.140118 260.213287,38.007690 
	C265.887421,37.618504 271.564209,37.267628 277.239960,36.901749 
	C283.820587,42.998272 290.401184,49.094795 297.025391,55.530045 
z"/>
<path fill="#5CC297" opacity="1.000000" stroke="none" 
	d="
M211.239105,256.743225 
	C202.810562,252.960907 194.695328,248.893005 186.487625,245.021164 
	C175.713699,239.938705 164.861496,235.022293 154.063675,229.989975 
	C153.352081,229.658340 152.816437,228.949142 152.044708,228.083496 
	C154.676636,225.476166 157.462799,223.200897 160.625656,221.175430 
	C162.280792,222.592926 163.373337,224.147720 164.867844,224.865479 
	C174.543030,229.512054 184.270508,234.054306 194.051422,238.474533 
	C201.407471,241.798904 208.868958,244.889969 216.283508,248.084900 
	C214.692764,250.904877 213.102020,253.724854 211.239105,256.743225 
z"/>
<path fill="#D12145" opacity="1.000000" stroke="none" 
	d="
M453.405792,493.761902 
	C453.001343,483.448914 452.956207,473.152191 453.039307,462.856537 
	C453.055023,460.908173 453.580017,458.963898 453.935120,456.618164 
	C459.102509,457.408997 464.204773,458.599365 469.653748,460.412689 
	C470.055267,470.881165 470.110138,480.726654 470.165039,490.572144 
	C464.713196,491.640930 459.261383,492.709747 453.405792,493.761902 
z"/>
<path fill="#0AAFE5" opacity="1.000000" stroke="none" 
	d="
M97.487282,269.581573 
	C101.495346,271.751862 105.004303,274.504089 108.936729,276.358185 
	C124.671707,283.777069 140.537277,290.919098 156.356720,298.158752 
	C159.971970,299.813263 163.648727,301.344910 167.189438,303.145020 
	C168.573807,303.848846 169.661575,305.136078 170.922577,306.499084 
	C169.560120,308.233093 168.159531,309.625580 166.459045,311.164673 
	C158.354248,307.342133 150.633347,303.195770 142.723877,299.447296 
	C132.079590,294.402740 121.283562,289.678894 110.565002,284.790344 
	C104.223183,281.897949 97.905190,278.953278 91.204727,275.981873 
	C92.949570,273.871338 95.066185,271.811035 97.487282,269.581573 
z"/>
<path fill="#66C48E" opacity="1.000000" stroke="none" 
	d="
M216.541321,247.886200 
	C208.868958,244.889969 201.407471,241.798904 194.051422,238.474533 
	C184.270508,234.054306 174.543030,229.512054 164.867844,224.865479 
	C163.373337,224.147720 162.280792,222.592926 160.945435,221.045120 
	C162.674210,218.839874 164.459885,217.014725 166.866394,215.208191 
	C185.253586,223.483475 203.019943,231.740158 220.786301,239.996857 
	C219.457230,242.560394 218.128174,245.123932 216.541321,247.886200 
z"/>
<path fill="#2258AE" opacity="1.000000" stroke="none" 
	d="
M6.769695,412.305298 
	C13.177827,414.592407 19.371317,417.125031 25.505766,419.793396 
	C29.267620,421.429718 32.938995,423.274017 37.041813,425.082520 
	C33.567539,430.352478 29.702440,435.564819 25.553669,440.941528 
	C18.137518,438.071228 11.005039,435.036530 3.485508,432.002258 
	C4.242352,425.537811 5.386250,419.072968 6.769695,412.305298 
z"/>
<path fill="#70C784" opacity="1.000000" stroke="none" 
	d="
M220.993164,239.707245 
	C203.019943,231.740158 185.253586,223.483475 167.158417,215.067474 
	C168.939529,212.671997 171.049438,210.435852 173.775818,208.173996 
	C186.553284,213.904633 198.675873,219.744339 210.894897,225.374725 
	C215.529037,227.510086 220.385361,229.163269 225.140427,231.036224 
	C223.826965,233.830032 222.513489,236.623840 220.993164,239.707245 
z"/>
<path fill="#8CCD6A" opacity="1.000000" stroke="none" 
	d="
M186.948639,192.872528 
	C188.693359,190.660217 190.438049,188.447922 192.846664,186.125534 
	C198.031067,188.021408 202.557663,190.013748 207.070770,192.036163 
	C216.694107,196.348618 226.310425,200.676666 235.929626,204.998322 
	C234.734634,208.128235 233.539642,211.258148 231.806335,214.656448 
	C217.896332,208.809982 204.501190,202.745270 191.183319,196.515366 
	C189.559143,195.755600 188.350082,194.108429 186.948639,192.872528 
z"/>
<path fill="#82CB74" opacity="1.000000" stroke="none" 
	d="
M186.659500,193.045868 
	C188.350082,194.108429 189.559143,195.755600 191.183319,196.515366 
	C204.501190,202.745270 217.896332,208.809982 231.628922,214.962173 
	C230.940552,217.887527 229.891281,220.775543 228.258759,223.771912 
	C217.519363,219.128189 207.401642,214.291397 197.192352,209.656296 
	C191.206985,206.938843 185.075760,204.542618 179.010132,202.001892 
	C181.463547,199.074341 183.916962,196.146790 186.659500,193.045868 
z"/>
<path fill="#96D061" opacity="1.000000" stroke="none" 
	d="
M236.057007,204.649094 
	C226.310425,200.676666 216.694107,196.348618 207.070770,192.036163 
	C202.557663,190.013748 198.031067,188.021408 193.124542,185.958099 
	C195.254333,182.640045 197.770172,179.379349 200.737061,176.267334 
	C208.810913,180.240646 216.363815,184.214127 224.081406,187.836792 
	C229.108658,190.196594 234.375381,192.046249 239.534821,194.124451 
	C238.417999,197.516251 237.301193,200.908066 236.057007,204.649094 
z"/>
<path fill="#D8213E" opacity="1.000000" stroke="none" 
	d="
M470.582764,490.530121 
	C470.110138,480.726654 470.055267,470.881165 470.001099,460.574524 
	C475.789673,461.267975 481.577545,462.422546 487.684204,464.247375 
	C488.001770,471.852814 488.000488,478.788055 487.999237,485.723267 
	C482.333008,487.311554 476.666748,488.899811 470.582764,490.530121 
z"/>
<path fill="#A0D257" opacity="1.000000" stroke="none" 
	d="
M239.711380,193.825470 
	C234.375381,192.046249 229.108658,190.196594 224.081406,187.836792 
	C216.363815,184.214127 208.810913,180.240646 201.026276,176.087906 
	C203.001312,172.877167 205.138168,169.994568 207.762146,167.239792 
	C219.664536,172.619736 231.079849,177.871857 242.495148,183.123962 
	C241.626083,186.591461 240.757004,190.058975 239.711380,193.825470 
z"/>
<path fill="#79C97C" opacity="1.000000" stroke="none" 
	d="
M178.714691,202.148010 
	C185.075760,204.542618 191.206985,206.938843 197.192352,209.656296 
	C207.401642,214.291397 217.519363,219.128189 228.034225,224.031418 
	C227.483582,226.323883 226.574234,228.465179 225.402664,230.821350 
	C220.385361,229.163269 215.529037,227.510086 210.894897,225.374725 
	C198.675873,219.744339 186.553284,213.904633 174.047577,207.996979 
	C175.274979,205.995163 176.847107,204.144638 178.714691,202.148010 
z"/>
<path fill="#E02337" opacity="1.000000" stroke="none" 
	d="
M488.361389,485.685303 
	C488.000488,478.788055 488.001770,471.852814 488.005463,464.447571 
	C499.698395,465.917175 511.388885,467.856812 523.079346,469.796448 
	C523.206604,470.351410 523.333862,470.906403 523.461121,471.461395 
	C511.881958,476.190033 500.302765,480.918701 488.361389,485.685303 
z"/>
<path fill="#AAD44E" opacity="1.000000" stroke="none" 
	d="
M242.670654,182.815002 
	C231.079849,177.871857 219.664536,172.619736 208.051971,167.062225 
	C209.642487,164.258759 211.430252,161.760681 213.881454,159.144501 
	C218.479584,160.736816 222.403427,162.472763 226.351486,164.151749 
	C232.549591,166.787659 238.764038,169.385132 244.971588,171.998886 
	C244.263123,175.501282 243.554642,179.003677 242.670654,182.815002 
z"/>
<path fill="#BED93D" opacity="1.000000" stroke="none" 
	d="
M249.452774,142.101944 
	C248.881592,147.553635 248.310410,153.005341 247.128052,158.750397 
	C241.342865,156.861618 236.055191,154.907852 231.038086,152.410507 
	C228.091904,150.944016 225.576126,148.612900 222.866760,146.670685 
	C225.704514,142.552933 228.542282,138.435181 231.952850,134.344391 
	C238.168030,136.948227 243.810394,139.525085 249.452774,142.101944 
z"/>
<path fill="#B3D646" opacity="1.000000" stroke="none" 
	d="
M222.578537,146.862900 
	C225.576126,148.612900 228.091904,150.944016 231.038086,152.410507 
	C236.055191,154.907852 241.342865,156.861618 246.921097,159.081238 
	C246.655365,163.177841 245.985397,167.236969 245.143494,171.647491 
	C238.764038,169.385132 232.549591,166.787659 226.351486,164.151749 
	C222.403427,162.472763 218.479584,160.736816 214.158997,158.971191 
	C216.612167,154.962357 219.451233,151.008743 222.578537,146.862900 
z"/>
<path fill="#CCDC35" opacity="1.000000" stroke="none" 
	d="
M249.613953,141.737152 
	C243.810394,139.525085 238.168030,136.948227 232.238953,134.172714 
	C237.926895,125.161362 243.901535,116.348656 249.876160,107.535950 
	C250.344437,107.671021 250.812714,107.806099 251.280991,107.941170 
	C250.779053,119.084900 250.277100,130.228622 249.613953,141.737152 
z"/>
<path fill="#F8E035" opacity="1.000000" stroke="none" 
	d="
M277.069092,36.605011 
	C271.564209,37.267628 265.887421,37.618504 260.213287,38.007690 
	C258.282532,38.140118 256.358368,38.369015 254.148682,38.885307 
	C250.522278,31.371906 247.178375,23.527018 243.834473,15.682132 
	C244.200485,15.305066 244.566498,14.928000 244.932495,14.550936 
	C256.312164,20.670830 266.871765,28.072836 277.069092,36.605011 
z"/>
</svg>